<svg width="635" height="652" fill="none" xmlns="http://www.w3.org/2000/svg"><path d="M16 483.849V65l93 57.635V539" stroke="#719AD2" stroke-width="10"/><path d="M14 60.5 106 6l92 54.5V494M280.5 129l81-50.5M342 207l-85 56.657V567" stroke="#719AD2" stroke-width="10"/><path d="m337 207 79 47.935V576" stroke="#719AD2" stroke-width="10"/><path d="m417 255.5-80.5 52L258 264M336.5 306.5V626M198 76l84 54.042V248" stroke="#719AD2" stroke-width="10"/><path d="M203 78.889 285.823 26 365 78.889V222M416 310l39.5-25L616 382v110M416 361l120 75.5V540M616 380.5l-81 56M107.5 123.5l93.5-60" stroke="#719AD2" stroke-width="10"/><circle cx="19.5" cy="502.5" r="19.5" fill="#719AD2"/><circle cx="615.5" cy="502.5" r="19.5" fill="#719AD2"/><path d="m38.5 508.5 218 75.5L532 543.5l87-49" stroke="#719AD2" stroke-width="6"/><path d="M418.5 476c4 0 80.667 42 118.5 63M336.5 633l80.5-48 118-43M337.5 631.5l-230-77M109.5 557.5 198 514l59 69.5h161" stroke="#719AD2" stroke-width="6"/><circle cx="535.5" cy="541.5" r="19.5" fill="#719AD2"/><circle cx="416.5" cy="586.5" r="19.5" fill="#719AD2"/><circle cx="336.5" cy="632.5" r="19.5" fill="#719AD2"/><circle cx="256.5" cy="586.5" r="19.5" fill="#719AD2"/><circle cx="197.5" cy="511.5" r="19.5" fill="#719AD2"/><circle cx="109.5" cy="556.5" r="19.5" fill="#719AD2"/></svg>